700 0 1 0           
4 LibG 19 ASM 219.0.0.5600 NT 24 Wed Sep 16 15:26:33 2015 
1000 9.9999999999999995e-007 1e-010 
body $-1 -1 $-1 $1 $-1 $-1 #
lump $-1 -1 $-1 $-1 $2 $0 #
shell $-1 -1 $-1 $-1 $-1 $3 $-1 $1 #
face $-1 -1 $-1 $-1 $4 $2 $-1 $5 forward double out #
loop $-1 -1 $-1 $-1 $6 $3 #
spline-surface $-1 -1 $-1 forward { exactsur full nubs 3 3 open open none none 8 8 
	1 3 2 1 3 1 4 1 5 1 
	6 1 7 1 8 3 
	1 3 2 1 3 1 4 1 5 1 
	6 1 7 1 8 3 
	95.998851476614703 -46.291405132247149 -4.7254435371388164 
	95.998851476614703 -44.09049474484658 -6.6337010245266654 
	95.998851476614689 -38.302222155948904 -8.6323588745761288 
	95.998851476614689 -24.999999999999986 -7.5911689942537413 
	95.998851476614689 -8.6824088833465183 -2.9979867750741973 
	95.998851476614689 8.6824088833465183 2.9979867750741973 
	95.998851476614689 25.000000000000011 7.5911689942537475 
	95.998851476614689 38.302222155948911 8.6323588745761288 
	95.998851476614689 44.09049474484658 6.6337010245266654 
	95.998851476614689 46.291405132247149 4.7254435371388164 
	103.27105669325775 -46.291405132247149 -7.2286775549284696 
	103.27105669325775 -44.09049474484658 -10.147806301191494 
	103.27105669325773 -38.302222155948904 -13.2052236689127 
	103.27105669325773 -24.999999999999986 -11.612478806096661 
	103.27105669325773 -8.6824088833465183 -4.5861260515818127 
	103.27105669325773 8.6824088833465183 4.5861260515818127 
	103.27105669325773 25.000000000000011 11.61247880609667 
	103.27105669325773 38.302222155948911 13.2052236689127 
	103.27105669325773 44.09049474484658 10.147806301191494 
	103.27105669325773 46.291405132247149 7.2286775549284696 
	114.90658503988658 -46.291405132247142 -12.797194587388756 
	114.90658503988658 -44.09049474484658 -17.965035912127128 
	114.90658503988658 -38.302222155948904 -23.377694685779865 
	114.90658503988658 -24.999999999999982 -20.557999688646696 
	114.90658503988658 -8.6824088833465183 -8.1189881604791125 
	114.90658503988658 8.6824088833465183 8.1189881604791125 
	114.90658503988658 25.000000000000011 20.557999688646706 
	114.90658503988658 38.302222155948911 23.377694685779865 
	114.90658503988658 44.09049474484658 17.965035912127128 
	114.90658503988658 46.291405132247142 12.797194587388756 
	132.3598775598299 -46.291405132247142 -15.162020563664511 
	132.3598775598299 -44.09049474484658 -21.284840366112061 
	132.3598775598299 -38.302222155948904 -27.697718053468346 
	132.3598775598299 -24.999999999999982 -24.356964481437323 
	132.3598775598299 -8.6824088833465183 -9.6193165310344302 
	132.3598775598299 8.6824088833465183 9.6193165310344302 
	132.3598775598299 25.000000000000011 24.356964481437338 
	132.3598775598299 38.302222155948911 27.69771805346835 
	132.3598775598299 44.09049474484658 21.284840366112064 
	132.3598775598299 46.291405132247142 15.162020563664512 
	149.81317007977319 -46.291405132247142 -6.8092450149740849 
	149.81317007977319 -44.09049474484658 -9.5589959497086099 
	149.81317007977316 -38.302222155948904 -12.439011528167599 
	149.81317007977316 -24.999999999999982 -10.938683157612271 
	149.81317007977316 -8.6824088833465183 -4.3200233676884832 
	149.81317007977316 8.6824088833465183 4.3200233676884832 
	149.81317007977316 25.000000000000011 10.93868315761228 
	149.81317007977316 38.302222155948911 12.439011528167599 
	149.81317007977319 44.09049474484658 9.5589959497086099 
	149.81317007977319 46.291405132247142 6.8092450149740849 
	167.26646259971648 -46.291405132247142 6.8092450149740804 
	167.26646259971648 -44.09049474484658 9.5589959497086046 
	167.26646259971648 -38.302222155948904 12.43901152816759 
	167.26646259971648 -24.999999999999982 10.938683157612266 
	167.26646259971648 -8.6824088833465183 4.3200233676884814 
	167.26646259971648 8.6824088833465183 -4.3200233676884814 
	167.26646259971648 25.000000000000011 -10.938683157612274 
	167.26646259971648 38.302222155948911 -12.43901152816759 
	167.26646259971648 44.09049474484658 -9.5589959497086046 
	167.26646259971648 46.291405132247142 -6.8092450149740804 
	184.71975511965979 -46.291405132247142 15.162020563664512 
	184.71975511965979 -44.09049474484658 21.284840366112064 
	184.71975511965979 -38.302222155948904 27.697718053468353 
	184.71975511965979 -24.999999999999982 24.356964481437331 
	184.71975511965979 -8.6824088833465183 9.6193165310344337 
	184.71975511965979 8.6824088833465183 -9.6193165310344337 
	184.71975511965979 25.000000000000011 -24.356964481437341 
	184.71975511965979 38.302222155948911 -27.697718053468353 
	184.71975511965979 44.09049474484658 -21.284840366112064 
	184.71975511965979 46.291405132247142 -15.162020563664512 
	202.17304763960311 -46.291405132247142 12.797194587388752 
	202.17304763960311 -44.09049474484658 17.965035912127124 
	202.17304763960308 -38.302222155948904 23.377694685779861 
	202.17304763960308 -24.999999999999982 20.557999688646689 
	202.17304763960308 -8.6824088833465183 8.1189881604791108 
	202.17304763960308 8.6824088833465183 -8.1189881604791108 
	202.17304763960308 25.000000000000011 -20.557999688646706 
	202.17304763960308 38.302222155948911 -23.377694685779858 
	202.17304763960308 44.09049474484658 -17.965035912127121 
	202.17304763960308 46.291405132247142 -12.79719458738875 
	213.80857598623197 -46.291405132247142 7.2286775549284696 
	213.80857598623197 -44.09049474484658 10.147806301191494 
	213.80857598623192 -38.302222155948904 13.2052236689127 
	213.80857598623192 -24.999999999999982 11.612478806096661 
	213.80857598623192 -8.6824088833465183 4.5861260515818127 
	213.80857598623192 8.6824088833465183 -4.5861260515818127 
	213.80857598623192 25.000000000000007 -11.612478806096671 
	213.80857598623192 38.302222155948911 -13.205223668912698 
	213.80857598623192 44.09049474484658 -10.147806301191492 
	213.80857598623192 46.291405132247142 -7.2286775549284696 
	221.08078120287502 -46.291405132247142 4.7254435371388173 
	221.08078120287502 -44.09049474484658 6.6337010245266663 
	221.08078120287496 -38.302222155948904 8.6323588745761288 
	221.08078120287496 -24.999999999999982 7.5911689942537421 
	221.08078120287496 -8.6824088833465183 2.9979867750741973 
	221.08078120287496 8.6824088833465183 -2.9979867750741973 
	221.08078120287496 25.000000000000007 -7.5911689942537492 
	221.08078120287496 38.302222155948911 -8.6323588745761288 
	221.08078120287496 44.09049474484658 -6.6337010245266654 
	221.08078120287496 46.291405132247142 -4.7254435371388173 
	0 
	
	0 
	0 
	6 2 3 4 5 6 7 
	0 
	0 
	6 2 3 4 5 6 7 
	F 1 F 0 F 1 F 0 } I I I I #
coedge $-1 -1 $-1 $7 $8 $-1 $9 forward $4 $10 #
coedge $-1 -1 $-1 $11 $6 $-1 $12 forward $4 $13 #
coedge $-1 -1 $-1 $6 $11 $-1 $14 reversed $4 $15 #
edge $-1 -1 $-1 $16 1 $17 8 $6 $18 forward @7 unknown #
pcurve $-1 -1 $-1 0 forward { exppc nubs 1 open 2 
	1 1 8 1 
	1 1 
	8 1 
	0 
	spline forward { ref 0 } I I I I 
	} 0 0 #
coedge $-1 -1 $-1 $8 $7 $-1 $19 reversed $4 $20 #
edge $-1 -1 $-1 $17 1 $21 8 $7 $22 forward @7 unknown #
pcurve $-1 -1 $-1 0 forward { exppc nubs 1 open 2 
	1 1 8 1 
	8 1 
	8 8 
	0 
	spline forward { ref 0 } I I I I 
	} 0 0 #
edge $-1 -1 $-1 $16 1 $23 8 $8 $24 forward @7 unknown #
pcurve $-1 -1 $-1 0 reversed { exppc nubs 1 open 2 
	1 1 8 1 
	1 1 
	1 8 
	0 
	spline forward { ref 0 } I I I I 
	} 0 0 #
vertex $-1 -1 $-1 $14 $25 #
vertex $-1 -1 $-1 $12 $26 #
intcurve-curve $-1 -1 $-1 forward { parcur full nubs 3 open 8 
	1 3 2 1 3 1 4 1 5 1 
	6 1 7 1 8 3 
	95.998851476614703 -46.291405132247149 -4.7254435371388164 
	95.998851476614703 -44.09049474484658 -6.6337010245266654 
	95.998851476614689 -38.302222155948904 -8.6323588745761288 
	95.998851476614689 -24.999999999999986 -7.5911689942537413 
	95.998851476614689 -8.6824088833465183 -2.9979867750741973 
	95.998851476614689 8.6824088833465183 2.9979867750741973 
	95.998851476614689 25.000000000000011 7.5911689942537475 
	95.998851476614689 38.302222155948911 8.6323588745761288 
	95.998851476614689 44.09049474484658 6.6337010245266654 
	95.998851476614689 46.291405132247149 4.7254435371388164 
	0 
	
	spline forward { ref 0 } I I I I 
	null_surface 
	nubs 1 open 2 
	1 1 8 1 
	1 1 
	8 1 
	
	nullbs 
	I I 
	0 
	0 
	6 2 3 4 5 6 7 
	surf1 } I I #
edge $-1 -1 $-1 $23 1 $21 8 $11 $27 forward @7 unknown #
pcurve $-1 -1 $-1 0 reversed { exppc nubs 1 open 2 
	1 1 8 1 
	1 8 
	8 8 
	0 
	spline forward { ref 0 } I I I I 
	} 0 0 #
vertex $-1 -1 $-1 $12 $28 #
intcurve-curve $-1 -1 $-1 forward { parcur full nubs 3 open 8 
	1 3 2 1 3 1 4 1 5 1 
	6 1 7 1 8 3 
	95.998851476614689 46.291405132247149 4.7254435371388164 
	103.27105669325773 46.291405132247149 7.2286775549284696 
	114.90658503988658 46.291405132247142 12.797194587388756 
	132.3598775598299 46.291405132247142 15.162020563664512 
	149.81317007977319 46.291405132247142 6.8092450149740849 
	167.26646259971648 46.291405132247142 -6.8092450149740804 
	184.71975511965979 46.291405132247142 -15.162020563664512 
	202.17304763960308 46.291405132247142 -12.79719458738875 
	213.80857598623192 46.291405132247142 -7.2286775549284696 
	221.08078120287496 46.291405132247142 -4.7254435371388173 
	0 
	
	spline forward { ref 0 } I I I I 
	null_surface 
	nubs 1 open 2 
	1 1 8 1 
	8 1 
	8 8 
	
	nullbs 
	I I 
	0 
	0 
	6 2 3 4 5 6 7 
	surf1 } I I #
vertex $-1 -1 $-1 $14 $29 #
intcurve-curve $-1 -1 $-1 forward { parcur full nubs 3 open 8 
	1 3 2 1 3 1 4 1 5 1 
	6 1 7 1 8 3 
	95.998851476614703 -46.291405132247149 -4.7254435371388164 
	103.27105669325775 -46.291405132247149 -7.2286775549284696 
	114.90658503988658 -46.291405132247142 -12.797194587388756 
	132.3598775598299 -46.291405132247142 -15.162020563664511 
	149.81317007977319 -46.291405132247142 -6.8092450149740849 
	167.26646259971648 -46.291405132247142 6.8092450149740804 
	184.71975511965979 -46.291405132247142 15.162020563664512 
	202.17304763960311 -46.291405132247142 12.797194587388752 
	213.80857598623197 -46.291405132247142 7.2286775549284696 
	221.08078120287502 -46.291405132247142 4.7254435371388173 
	0 
	
	spline forward { ref 0 } I I I I 
	null_surface 
	nubs 1 open 2 
	1 1 8 1 
	1 1 
	1 8 
	
	nullbs 
	I I 
	0 
	0 
	6 2 3 4 5 6 7 
	surf1 } I I #
point $-1 -1 $-1 95.998851476614703 -46.291405132247149 -4.7254435371388164 #
point $-1 -1 $-1 95.998851476614689 46.291405132247149 4.7254435371388164 #
intcurve-curve $-1 -1 $-1 forward { parcur full nubs 3 open 8 
	1 3 2 1 3 1 4 1 5 1 
	6 1 7 1 8 3 
	221.08078120287502 -46.291405132247142 4.7254435371388173 
	221.08078120287502 -44.09049474484658 6.6337010245266663 
	221.08078120287496 -38.302222155948904 8.6323588745761288 
	221.08078120287496 -24.999999999999982 7.5911689942537421 
	221.08078120287496 -8.6824088833465183 2.9979867750741973 
	221.08078120287496 8.6824088833465183 -2.9979867750741973 
	221.08078120287496 25.000000000000007 -7.5911689942537492 
	221.08078120287496 38.302222155948911 -8.6323588745761288 
	221.08078120287496 44.09049474484658 -6.6337010245266654 
	221.08078120287496 46.291405132247142 -4.7254435371388173 
	0 
	
	spline forward { ref 0 } I I I I 
	null_surface 
	nubs 1 open 2 
	1 1 8 1 
	1 8 
	8 8 
	
	nullbs 
	I I 
	0 
	0 
	6 2 3 4 5 6 7 
	surf1 } I I #
point $-1 -1 $-1 221.08078120287496 46.291405132247142 -4.7254435371388173 #
point $-1 -1 $-1 221.08078120287502 -46.291405132247142 4.7254435371388173 #
End-of-ACIS-data 